<svg xmlns="http://www.w3.org/2000/svg" viewBox="0 0 192 192">
  <defs>
    <linearGradient id="bg" x1="0" y1="0" x2="1" y2="1" gradientTransform="rotate(45 0.5 0.5)">
      <stop offset="0%" stop-color="#a04a30"/>
      <stop offset="100%" stop-color="#c96442"/>
    </linearGradient>
  </defs>
  <rect width="192" height="192" rx="42" fill="url(#bg)"/>
  <!-- KeyRound lucide icon, scaled 4.5x, centered -->
  <g transform="translate(42, 42) scale(4.5)" fill="none" stroke="#fff7e8" stroke-width="2" stroke-linecap="round" stroke-linejoin="round">
    <path d="M2.586 17.414A2 2 0 0 0 2 18.828V21a1 1 0 0 0 1 1h3a1 1 0 0 0 1-1v-1a1 1 0 0 0 1-1h1a1 1 0 0 0 1-1v-1a1 1 0 0 0 1-1h.172a2 2 0 0 0 1.414-.586l.814-.814a6.5 6.5 0 1 0-4-4z"/>
    <circle cx="16.5" cy="7.5" r=".5" fill="#fff7e8"/>
  </g>
</svg>
