<svg xmlns="http://www.w3.org/2000/svg" viewBox="0 0 512 512">
  <rect width="512" height="512" rx="112" fill="#c96442"/>
  <!-- KeyRound lucide icon, scaled 12x, centered -->
  <g transform="translate(112, 112) scale(12)" fill="none" stroke="#fff7e8" stroke-width="2" stroke-linecap="round" stroke-linejoin="round">
    <path d="M2.586 17.414A2 2 0 0 0 2 18.828V21a1 1 0 0 0 1 1h3a1 1 0 0 0 1-1v-1a1 1 0 0 0 1-1h1a1 1 0 0 0 1-1v-1a1 1 0 0 0 1-1h.172a2 2 0 0 0 1.414-.586l.814-.814a6.5 6.5 0 1 0-4-4z"/>
    <circle cx="16.5" cy="7.5" r=".5" fill="#fff7e8"/>
  </g>
</svg>
